<svg width="200" height="60" viewBox="0 0 200 60" fill="none" xmlns="http://www.w3.org/2000/svg">
<g clip-path="url(#clip0_14_36)">
<circle cx="30" cy="30" r="30" fill="#03C75A"/>
<path d="M34.0066 30.7931L25.6644 18.75H18.75V41.25H25.9934V29.2069L34.3356 41.25H41.25V18.75H34.0066V30.7931Z" fill="white"/>
<circle cx="100" cy="30" r="29.5" fill="white" stroke="#EEEEEE"/>
<path fill-rule="evenodd" clip-rule="evenodd" d="M112.975 30.6703C112.975 29.7397 112.891 28.8449 112.736 27.9858H100.375V33.0625H107.439C107.134 34.7031 106.21 36.093 104.82 37.0237V40.3167H109.061C111.543 38.0319 112.975 34.6673 112.975 30.6703Z" fill="#4285F4"/>
<path fill-rule="evenodd" clip-rule="evenodd" d="M100.376 43.4999C103.92 43.4999 106.891 42.3247 109.062 40.3203L104.821 37.0273C103.645 37.8147 102.142 38.28 100.376 38.28C96.9576 38.28 94.0641 35.9714 93.032 32.8693H88.6471V36.2696C90.8068 40.5589 95.2454 43.4999 100.376 43.4999Z" fill="#34A853"/>
<path fill-rule="evenodd" clip-rule="evenodd" d="M93.031 32.8692C92.7685 32.0817 92.6193 31.2406 92.6193 30.3755C92.6193 29.5105 92.7685 28.6694 93.031 27.8819V24.4816H88.646C87.7571 26.2533 87.25 28.2578 87.25 30.3755C87.25 32.4933 87.7571 34.4978 88.646 36.2695L93.031 32.8692Z" fill="#FBBC05"/>
<path fill-rule="evenodd" clip-rule="evenodd" d="M100.376 22.4699C102.303 22.4699 104.033 23.132 105.393 24.4325L109.158 20.6683C106.885 18.5505 103.914 17.25 100.376 17.25C95.2454 17.25 90.8068 20.191 88.6471 24.4803L93.032 27.8806C94.0641 24.7785 96.9576 22.4699 100.376 22.4699Z" fill="#EA4335"/>
<circle cx="170" cy="30" r="30" fill="#FFE500"/>
<path d="M170.001 16.5C161.716 16.5 155 21.7972 155 28.3316C155 32.5562 157.808 36.2631 162.032 38.3562C161.802 39.149 160.555 43.4559 160.505 43.7943C160.505 43.7943 160.476 44.0485 160.64 44.1455C160.805 44.2424 160.998 44.1671 160.998 44.1671C161.47 44.1012 166.471 40.5872 167.337 39.977C168.202 40.0995 169.092 40.1632 170.001 40.1632C178.287 40.1632 185.003 34.8661 185.003 28.3316C185.003 21.7972 178.287 16.5 170.001 16.5Z" fill="black" fill-opacity="0.9"/>
<path d="M161.706 32.4628C161.228 32.4628 160.84 32.092 160.84 31.636V26.4929H159.49C159.021 26.4929 158.641 26.1126 158.641 25.6452C158.641 25.1779 159.022 24.7975 159.49 24.7975H163.922C164.39 24.7975 164.771 25.1779 164.771 25.6452C164.771 26.1126 164.39 26.4929 163.922 26.4929H162.571V31.636C162.571 32.092 162.183 32.4628 161.706 32.4628ZM169.295 32.4515C168.934 32.4515 168.658 32.3049 168.575 32.0692L168.146 30.9469L165.507 30.9468L165.078 32.0698C164.995 32.3051 164.719 32.4515 164.358 32.4515C164.168 32.4517 163.981 32.411 163.808 32.3321C163.57 32.222 163.34 31.9193 163.603 31.1027L165.673 25.6521C165.819 25.2376 166.262 24.8105 166.826 24.7977C167.391 24.8104 167.834 25.2376 167.98 25.653L170.049 31.1012C170.313 31.9195 170.083 32.2224 169.845 32.3322C169.672 32.411 169.485 32.4517 169.295 32.4515C169.295 32.4515 169.295 32.4515 169.295 32.4515V32.4515ZM167.691 29.4134L166.826 26.9569L165.962 29.4134H167.691V29.4134ZM171.442 32.3365C170.985 32.3365 170.613 31.9804 170.613 31.543V25.6632C170.613 25.1858 171.009 24.7975 171.496 24.7975C171.983 24.7975 172.38 25.1858 172.38 25.6632V30.7494H174.219C174.676 30.7494 175.048 31.1055 175.048 31.543C175.048 31.9804 174.676 32.3365 174.219 32.3365H171.442ZM176.251 32.4515C175.773 32.4515 175.385 32.0633 175.385 31.5858V25.6632C175.385 25.1858 175.773 24.7975 176.251 24.7975C176.728 24.7975 177.116 25.1858 177.116 25.6632V27.524L179.531 25.1086C179.655 24.9844 179.825 24.916 180.011 24.916C180.227 24.916 180.444 25.0092 180.606 25.1717C180.758 25.3232 180.848 25.5181 180.861 25.7205C180.873 25.9247 180.805 26.1118 180.67 26.2476L178.697 28.2202L180.828 31.0433C180.897 31.1339 180.947 31.2372 180.975 31.3473C181.004 31.4574 181.01 31.5721 180.994 31.6846C180.979 31.7973 180.941 31.9058 180.883 32.0038C180.826 32.1018 180.749 32.1874 180.658 32.2556C180.509 32.3694 180.326 32.4308 180.138 32.4303C180.004 32.431 179.871 32.4001 179.751 32.3404C179.631 32.2806 179.527 32.1936 179.446 32.0862L177.417 29.3961L177.116 29.6965V31.5854C177.116 31.815 177.025 32.0351 176.862 32.1975C176.7 32.3599 176.48 32.4512 176.251 32.4515V32.4515Z" fill="#FFE812"/>
</g>
<defs>
<clipPath id="clip0_14_36">
<rect width="200" height="60" fill="white"/>
</clipPath>
</defs>
</svg>
